<?xml version="1.0" standalone="no"?>
<!DOCTYPE svg PUBLIC "-//W3C//DTD SVG 20010904//EN"
 "http://www.w3.org/TR/2001/REC-SVG-20010904/DTD/svg10.dtd">
<svg version="1.0" xmlns="http://www.w3.org/2000/svg"
 width="398.000000pt" height="398.000000pt" viewBox="0 0 398.000000 398.000000"
 preserveAspectRatio="xMidYMid meet">
<metadata>
Created by potrace 1.14, written by Peter Selinger 2001-2017
</metadata>
<g transform="translate(0.000000,398.000000) scale(0.100000,-0.100000)"
fill="#000000" stroke="none">
<path d="M2286 3558 l-14 -31 -12 23 -13 24 -14 -27 c-7 -15 -20 -27 -28 -27
-8 0 -15 -6 -15 -12 0 -7 -5 -5 -11 5 -14 24 -26 21 -33 -9 -5 -20 -10 -24
-19 -15 -21 21 -30 11 -23 -28 4 -26 2 -41 -5 -43 -16 -5 4 -64 36 -112 l23
-34 -35 -33 c-82 -79 -156 -293 -175 -504 l-11 -130 32 -80 c18 -44 39 -91 48
-104 21 -32 6 -40 -77 -42 -36 -1 -69 -2 -75 -4 -5 -1 -23 -3 -38 -3 -48 -3
-82 -48 -101 -132 -20 -89 -53 -200 -64 -217 -6 -9 -43 2 -142 45 -74 32 -153
70 -175 85 -44 30 -77 34 -126 13 -33 -14 -35 -13 -76 22 -23 21 -71 61 -107
90 -63 52 -65 55 -51 76 12 18 13 29 4 57 -42 125 -347 461 -518 570 -60 39
-85 49 -118 49 l-42 0 -26 -81 c-28 -88 -31 -129 -13 -180 46 -137 326 -410
466 -456 26 -8 61 -21 77 -28 17 -7 47 -16 67 -19 43 -8 158 -90 158 -113 0
-8 13 -32 30 -52 22 -28 26 -41 18 -49 -29 -29 75 -165 126 -164 52 0 117 25
160 63 l43 38 59 -49 c32 -27 80 -67 106 -89 63 -52 175 -82 213 -57 13 9 36
37 51 63 24 40 29 44 35 27 7 -15 45 -250 76 -468 4 -26 12 -40 24 -43 31 -9
31 -36 -5 -179 -65 -260 -65 -251 -19 -395 33 -100 39 -132 33 -164 -7 -39
-10 -38 -25 10 -2 8 -13 15 -23 15 -11 0 -31 19 -51 50 -57 88 -157 157 -256
176 -31 6 -36 10 -30 28 3 11 9 85 12 164 l6 142 -36 74 c-21 41 -54 89 -76
109 -39 35 -49 38 -169 53 -56 6 -64 13 -114 98 -26 43 -30 46 -70 46 -24 0
-72 -11 -108 -23 l-65 -23 -15 31 c-17 34 -52 49 -158 65 -55 9 -73 17 -102
46 -40 38 -64 42 -132 19 -34 -12 -70 -41 -151 -123 -60 -61 -108 -119 -112
-135 -6 -22 -13 -27 -37 -27 -22 0 -44 -14 -89 -57 -51 -49 -60 -61 -54 -83
10 -40 6 -72 -11 -91 -34 -38 21 -123 101 -156 42 -17 50 -28 45 -62 -1 -8 6
-34 15 -58 14 -35 16 -60 10 -119 -6 -65 -4 -78 15 -108 17 -28 21 -53 23
-134 1 -75 6 -104 18 -118 9 -11 19 -37 22 -59 4 -22 14 -45 23 -52 14 -10 14
-13 3 -17 -16 -6 -235 -56 -243 -56 -3 0 -6 -4 -6 -9 0 -4 35 -14 77 -21 77
-13 77 -14 43 -25 -19 -6 -30 -14 -24 -17 18 -11 302 -128 311 -128 24 -1 471
125 467 131 -2 4 -27 15 -55 24 -28 9 -48 19 -46 21 2 3 44 11 93 19 49 8 112
21 140 28 l52 14 42 -49 c89 -104 208 -155 337 -145 95 7 167 41 243 113 80
76 112 143 118 244 l4 78 34 7 c49 9 48 9 56 -26 8 -40 -18 -89 -73 -142 -33
-31 -40 -43 -37 -70 4 -43 51 -67 134 -67 49 0 68 5 95 25 19 14 49 34 67 46
28 19 32 26 32 67 0 26 -8 69 -19 97 -14 36 -16 53 -8 66 8 12 6 32 -4 69
l-14 53 103 105 c56 58 102 111 102 117 0 7 9 20 20 30 11 10 20 26 20 37 0
10 9 26 20 35 11 10 20 31 21 48 1 16 4 41 8 54 6 23 7 22 48 -22 32 -35 44
-57 53 -103 7 -33 27 -95 45 -139 18 -44 41 -101 50 -127 9 -27 21 -48 26 -48
5 0 9 -24 9 -52 0 -29 5 -70 10 -90 9 -32 16 -38 48 -44 20 -4 52 -14 71 -21
21 -9 47 -12 68 -8 28 5 40 0 78 -29 l45 -34 -72 -7 c-40 -4 -83 -13 -95 -21
-54 -34 -54 -152 0 -210 29 -30 43 -36 136 -55 l104 -21 161 21 c349 46 532
71 544 76 17 6 7 83 -18 140 -34 77 -96 114 -191 115 -37 0 -37 0 -41 48 -2
26 2 67 10 92 23 77 10 254 -28 380 -83 276 -246 599 -394 784 -51 64 -76 123
-76 182 0 20 63 128 105 180 28 34 39 40 62 37 18 -3 34 -15 45 -33 20 -34 68
-50 153 -50 104 0 239 42 274 84 11 14 9 49 -13 209 -38 267 -34 253 -62 266
-36 16 -194 14 -274 -5 -38 -8 -84 -25 -102 -38 -30 -20 -33 -27 -33 -71 0
-28 3 -66 7 -86 5 -32 3 -38 -18 -49 -16 -9 -30 -31 -41 -68 -15 -47 -27 -62
-83 -108 l-65 -53 -18 34 c-9 19 -27 40 -39 46 -30 16 -114 5 -170 -22 l-46
-22 -63 49 c-35 27 -66 50 -68 51 -3 2 35 43 83 91 96 97 180 210 190 257 4
21 0 42 -14 70 -22 43 -19 98 4 89 17 -6 26 26 26 93 0 47 2 51 22 45 20 -5
21 -3 14 61 -5 48 -3 67 5 67 7 0 9 9 6 21 -4 16 -3 18 8 9 22 -18 25 5 5 38
l-20 32 27 0 c25 0 25 1 9 19 -10 11 -29 22 -43 26 l-26 6 32 33 c36 37 31 52
-10 31 -39 -20 -39 -20 -39 25 0 44 -6 49 -26 23 -12 -16 -13 -15 -14 14 0 37
-28 113 -41 113 -5 0 -9 -27 -9 -60 l0 -59 -79 79 c-74 76 -111 100 -97 64 6
-15 -22 -2 -89 43 -26 18 -49 17 -41 -2 8 -21 5 -20 -77 22 -39 21 -75 39 -79
41 -3 2 -8 -4 -10 -13 -2 -12 -11 -4 -28 24 -14 22 -29 41 -33 41 -4 0 -14
-14 -21 -32z m-20 -314 c40 -52 71 -64 166 -64 46 0 110 -7 143 -14 114 -27
128 -79 75 -283 -32 -125 -42 -230 -22 -242 7 -4 21 -24 31 -45 12 -23 14 -33
6 -26 -11 9 -17 5 -28 -22 -24 -55 -83 -115 -130 -131 -128 -45 -247 -70 -304
-65 -62 6 -126 33 -155 65 -20 21 -73 143 -82 189 -18 82 34 367 69 381 8 2
48 -3 90 -12 60 -14 78 -15 90 -5 8 7 15 16 15 20 0 7 -105 22 -168 23 -38 1
-37 4 12 107 34 72 114 160 145 160 11 0 32 -16 47 -36z m-1853 -245 c173 -88
567 -518 567 -620 0 -64 -153 27 -325 193 -291 279 -427 520 -242 427z m2433
-276 c46 -35 68 -77 61 -120 -16 -97 -285 -384 -472 -502 -76 -48 -131 -36
-173 37 -38 68 -24 125 38 157 33 17 86 20 95 5 11 -17 24 -11 70 31 46 42 54
61 16 38 -11 -7 -23 -10 -27 -6 -11 11 -1 16 41 21 33 4 49 15 93 63 29 32 65
73 79 91 26 33 26 34 10 62 -16 27 -16 32 -1 70 33 81 104 104 170 53z m815
-159 c11 -9 19 -28 19 -41 0 -13 12 -106 26 -206 l25 -182 -21 -17 c-91 -73
-353 -91 -380 -25 -5 12 -21 108 -36 214 -22 155 -25 195 -15 207 16 19 107
54 174 66 75 13 185 5 208 -16z m-3056 -76 c22 -6 58 -12 81 -13 32 0 52 -10
95 -44 30 -24 69 -50 87 -59 17 -9 32 -19 32 -23 0 -9 -82 -29 -121 -29 -53 0
-226 119 -307 211 l-32 37 62 -34 c35 -19 81 -39 103 -46z m1618 -158 c35 0
85 6 111 14 33 10 46 11 43 3 -2 -6 -20 -15 -41 -19 -82 -17 -122 -73 -110
-154 3 -27 4 -46 0 -43 -4 4 -11 33 -16 65 -9 54 -14 63 -67 111 -57 52 -57
52 -21 38 21 -8 66 -15 101 -15z m-1213 -56 c51 -48 58 -59 49 -76 -10 -18
-13 -17 -51 17 -45 41 -111 74 -147 75 -31 0 -19 12 27 26 57 18 60 17 122
-42z m2266 9 c5 -32 3 -48 -5 -51 -6 -2 -11 -8 -11 -13 0 -4 7 -6 15 -3 11 5
15 -1 15 -24 0 -17 3 -37 6 -46 5 -12 0 -16 -21 -16 -14 0 -35 5 -46 10 -15 9
-19 7 -19 -6 0 -9 -13 -33 -29 -53 -15 -20 -42 -58 -59 -85 l-30 -50 -10 40
c-27 103 -29 94 46 156 55 45 71 65 81 100 14 49 37 88 51 88 5 0 12 -21 16
-47z m-1937 -148 c27 -19 126 -68 218 -108 142 -61 170 -77 183 -102 17 -34
37 -42 32 -13 -3 17 2 19 42 16 l45 -3 -27 -49 c-34 -62 -58 -79 -98 -66 -16
5 -47 14 -70 19 -28 8 -64 32 -117 80 -42 39 -85 75 -97 81 -15 8 -19 17 -15
38 5 24 4 25 -7 8 -33 -47 -51 -67 -81 -88 -18 -12 -26 -15 -19 -6 10 13 6 24
-32 69 -25 30 -43 56 -40 58 2 3 10 -1 16 -7 7 -7 26 -12 43 -11 l30 0 -34 12
c-19 7 -39 21 -45 32 -15 28 -28 35 -42 24 -13 -11 -31 7 -19 19 6 7 63 30 76
31 4 1 30 -15 58 -34z m1655 10 c8 -8 17 -23 20 -33 6 -22 46 -192 46 -198 0
-2 -11 -4 -24 -4 -22 0 -26 7 -46 93 -12 50 -28 105 -36 121 -8 16 -14 31 -14
33 0 10 41 1 54 -12z m-704 -85 c0 -28 -11 -50 -25 -50 -7 0 -19 -7 -26 -17
-8 -9 -29 -22 -46 -30 -18 -7 -33 -19 -33 -27 0 -7 -7 -19 -15 -26 -8 -7 -15
-23 -15 -36 0 -12 -4 -25 -8 -28 -11 -7 5 -127 18 -140 6 -6 10 -18 10 -27 0
-10 9 -21 20 -24 12 -4 23 -18 27 -35 3 -16 11 -31 19 -34 8 -3 14 -12 14 -21
0 -9 9 -15 25 -15 18 0 28 -7 35 -26 6 -15 22 -35 35 -46 14 -11 25 -30 25
-43 0 -17 6 -25 23 -27 16 -2 23 -11 25 -32 2 -17 17 -42 34 -58 20 -18 28
-34 24 -44 -4 -10 1 -25 10 -35 12 -13 15 -29 11 -54 -3 -19 -2 -37 3 -40 5
-3 9 -35 9 -72 -1 -54 -4 -66 -19 -70 -10 -3 -20 -17 -23 -33 -6 -27 -45 -94
-67 -115 -6 -5 -23 -23 -38 -39 -72 -79 -120 -126 -126 -126 -5 0 -21 -11 -38
-25 -16 -14 -35 -25 -41 -25 -7 0 -23 -9 -37 -20 -14 -11 -31 -20 -38 -20 -8
0 -25 -9 -39 -20 -14 -11 -36 -20 -49 -20 -19 0 -25 8 -34 41 -6 23 -9 44 -5
47 9 9 25 -19 25 -44 0 -29 7 -33 34 -21 18 9 22 19 22 51 -1 36 2 41 23 44
21 3 23 1 17 -22 -7 -29 9 -43 30 -25 13 10 13 14 -2 30 -9 10 -14 25 -11 34
8 19 47 20 47 1 0 -7 7 -19 16 -27 13 -10 17 -10 24 1 6 9 2 18 -11 28 -26 18
-26 62 0 62 13 0 21 -8 23 -22 4 -27 42 -37 51 -14 4 10 1 16 -8 16 -18 0 -38
37 -31 56 8 21 43 17 49 -6 6 -25 34 -37 50 -21 9 9 5 17 -17 35 -20 15 -27
28 -23 39 9 24 47 22 47 -2 0 -27 15 -34 30 -15 10 11 10 18 2 26 -7 7 -12 25
-12 40 0 21 5 28 20 28 15 0 20 -7 20 -26 0 -28 17 -29 34 -1 8 13 6 20 -8 30
-21 16 -18 50 5 55 10 2 19 -6 23 -20 7 -22 8 -22 22 11 13 30 13 35 0 50 -9
10 -16 21 -16 24 0 14 33 6 46 -10 12 -16 13 -16 14 8 0 18 -8 29 -25 37 -34
16 -31 32 5 32 30 0 30 1 15 24 -9 13 -25 26 -35 29 -11 3 -20 13 -20 22 0 13
6 16 25 13 27 -6 28 -4 16 27 -5 12 -17 20 -32 20 -32 0 -37 30 -7 39 l23 6
-28 25 c-15 14 -37 25 -48 25 -18 0 -18 1 4 23 l22 22 -47 9 c-29 6 -48 15
-48 23 0 7 6 13 14 13 8 0 16 6 19 13 6 16 -29 41 -38 27 -12 -19 -45 -11 -45
10 0 11 5 20 10 20 15 0 12 27 -4 33 -8 3 -20 -1 -26 -9 -20 -24 -50 -18 -50
10 0 28 15 43 24 24 3 -7 5 -4 3 7 -2 16 -8 19 -35 17 -23 -3 -32 1 -32 11 0
8 7 17 15 21 8 3 15 12 15 21 0 11 -11 15 -40 15 -42 0 -54 14 -20 23 31 8 24
25 -12 29 -46 4 -53 38 -8 38 27 0 30 2 20 14 -6 8 -21 16 -32 18 -35 5 -34
28 1 28 41 0 41 25 1 34 -18 3 -30 12 -30 21 0 12 8 14 40 9 36 -6 40 -4 40
14 0 13 -7 22 -21 24 -30 4 -48 33 -31 50 10 10 15 8 28 -10 19 -28 50 -29 50
-2 0 11 -4 20 -8 20 -13 0 -28 38 -22 54 9 23 44 20 44 -3 0 -26 17 -36 36
-21 12 11 12 14 -3 25 -23 17 -10 47 19 43 15 -2 22 -9 22 -21 -1 -9 3 -17 8
-17 5 0 8 12 7 28 -4 37 8 57 27 41 8 -6 14 -20 14 -29z m-1175 -20 c3 -5 1
-10 -4 -10 -6 0 -11 5 -11 10 0 6 2 10 4 10 3 0 8 -4 11 -10z m1811 -37 c-11
-11 -17 4 -9 23 7 18 8 18 11 1 2 -10 1 -21 -2 -24z m-270 -64 c76 -76 98 -92
126 -94 18 -1 53 -10 78 -19 24 -10 57 -18 73 -18 l28 -1 -21 -22 c-23 -25
-71 -143 -101 -249 -24 -87 -59 -278 -59 -323 0 -18 -4 -33 -8 -33 -7 0 -135
159 -226 280 -27 37 -28 41 -14 62 14 21 14 29 -9 93 -14 39 -34 87 -44 107
-28 55 -24 97 15 162 19 31 40 76 47 101 7 25 16 45 18 45 3 0 47 -41 97 -91z
m-1516 47 c-8 -8 -13 -7 -20 4 -12 20 -1 33 16 19 11 -9 12 -15 4 -23z m1766
-41 c-1 -44 18 -51 22 -7 5 48 16 39 33 -27 15 -59 15 -60 -7 -72 -24 -12 -54
-8 -112 17 l-35 14 26 20 c14 11 35 36 47 55 12 19 23 35 24 35 2 0 3 -16 2
-35z m-1725 10 c19 -8 29 -14 22 -15 -6 0 -18 -3 -26 -6 -10 -3 -20 3 -27 15
-13 25 -12 25 31 6z m50 -35 c5 0 9 -5 9 -11 0 -15 -43 -7 -48 10 -3 10 0 12
12 8 10 -4 22 -7 27 -7z m1853 -67 c16 -52 264 -1268 260 -1275 -3 -4 -16 -8
-29 -8 -20 0 -25 8 -39 73 -9 39 -74 328 -145 642 -92 406 -126 572 -117 577
22 15 64 9 70 -9z m45 -676 c72 -324 131 -592 131 -597 0 -4 -34 -11 -75 -15
-61 -5 -75 -10 -80 -26 -16 -50 -142 168 -184 318 -31 113 -45 252 -38 387 11
222 83 579 108 534 4 -7 66 -278 138 -601z m105 428 c115 -170 233 -416 306
-640 34 -104 44 -149 48 -226 5 -110 -9 -179 -34 -158 -10 8 -40 10 -97 6
l-82 -7 -119 568 c-65 312 -121 574 -124 582 -7 23 42 -37 102 -125z m-2538
84 l19 -21 -48 7 c-28 4 -47 3 -47 -2 0 -10 85 -27 193 -38 31 -4 57 -8 57
-11 0 -4 -31 -41 -101 -117 -35 -39 -36 -39 -65 -24 -16 8 -38 24 -48 36 -29
32 -55 26 -151 -34 -71 -45 -95 -55 -131 -55 -35 0 -44 3 -44 18 0 25 198 229
240 247 52 21 103 19 126 -6z m248 -95 c21 -21 20 -41 -3 -54 -26 -14 -28 -13
-34 11 -3 11 -16 23 -28 26 -21 6 -21 7 -4 20 25 17 50 17 69 -3z m283 -66
c50 -84 115 -150 187 -192 37 -21 69 -43 72 -48 4 -5 3 -30 -1 -54 -7 -51 -64
-124 -96 -124 -11 0 -34 23 -59 60 -42 61 -70 82 -128 95 -18 4 -52 25 -75 47
-114 109 -182 142 -239 115 -25 -11 -51 -14 -103 -10 l-69 6 -76 -81 -75 -81
-137 -2 c-76 -2 -141 0 -145 4 -22 22 272 257 322 257 9 0 33 -13 51 -30 19
-16 57 -36 85 -44 49 -15 52 -15 87 8 111 70 252 124 322 125 44 1 46 0 77
-51z m201 -97 c56 -11 101 -54 144 -140 32 -65 33 -68 31 -186 -1 -66 -6 -140
-10 -165 l-8 -45 -48 -3 -47 -3 0 63 c0 53 -5 70 -30 108 l-29 44 24 26 c51
54 72 152 38 182 -10 9 -38 26 -63 38 -49 25 -110 71 -110 83 0 9 53 8 108 -2z
m-533 -45 c115 -15 149 -27 188 -64 25 -24 26 -27 10 -33 -10 -4 -23 -3 -29 2
-6 5 -47 10 -90 11 -77 3 -81 2 -155 -40 -77 -44 -174 -120 -165 -129 3 -3 28
11 56 32 28 21 53 35 56 32 5 -5 -14 -520 -19 -522 -1 0 -28 -9 -61 -20 l-58
-19 -47 24 -46 25 3 255 2 254 26 38 c15 21 54 67 88 103 70 75 67 74 241 51z
m1500 -156 c18 0 19 -4 3 -31 -11 -18 -10 -23 15 -45 21 -18 24 -24 11 -24
-13 0 -16 -7 -11 -35 3 -19 2 -35 -4 -35 -12 0 -12 -37 1 -45 21 -13 9 -25
-25 -25 -28 0 -36 -5 -40 -23 -4 -12 -16 -27 -28 -32 -12 -6 -24 -21 -27 -35
-3 -17 -12 -25 -25 -25 -11 0 -25 -11 -32 -24 -20 -42 -48 -37 -67 12 -9 24
-16 47 -16 52 -1 6 23 85 52 177 37 117 58 168 68 168 8 1 31 7 50 13 34 12
36 11 47 -15 7 -16 19 -28 28 -28z m-1442 23 c-29 -9 -53 -20 -53 -25 0 -5 8
-7 18 -4 9 2 61 14 115 25 l97 21 63 -21 c98 -32 100 -41 26 -82 -35 -19 -82
-41 -105 -47 -36 -11 -45 -10 -85 10 -24 13 -63 36 -86 52 l-41 30 -52 -17
c-54 -18 -66 -16 -57 9 12 30 106 63 182 64 23 0 18 -3 -22 -15z m-430 -60 c3
-5 3 -22 0 -38 -4 -29 -7 -30 -40 -27 l-35 4 5 -38 c3 -22 9 -65 12 -96 6 -53
9 -58 31 -58 19 0 24 -5 24 -25 0 -19 -5 -25 -23 -25 l-23 0 12 -126 c7 -69
15 -128 18 -131 11 -11 101 -21 111 -12 13 12 43 11 47 -2 2 -5 38 -13 81 -16
l78 -6 -3 134 c-3 131 -3 134 -26 137 -31 5 -27 46 6 50 21 3 22 8 22 93 0 70
-3 91 -15 95 -8 4 -15 16 -15 29 0 19 9 26 47 39 63 22 67 21 124 -21 l50 -38
-65 -3 -66 -3 0 -63 c0 -35 -3 -76 -6 -92 -7 -40 14 -64 61 -70 33 -4 45 0 70
22 27 25 30 35 35 103 5 73 6 76 30 76 27 0 28 -5 14 -132 -6 -61 8 -71 69
-49 58 20 54 8 80 206 1 11 -6 14 -28 12 -27 -2 -25 1 25 32 30 20 57 36 60
36 3 0 14 -13 23 -30 16 -26 16 -30 3 -31 -9 -1 -22 -2 -28 -3 -8 0 -16 -23
-20 -56 -3 -30 -9 -72 -12 -94 l-7 -38 38 6 c66 12 71 15 77 54 15 84 18 92
35 92 15 0 16 -7 6 -79 -5 -44 -13 -83 -17 -87 -5 -4 -8 -19 -8 -34 0 -15 -9
-35 -21 -46 l-21 -19 7 46 7 47 -54 -12 -53 -12 -13 -90 c-7 -49 -21 -107 -32
-129 -11 -22 -22 -54 -26 -72 -6 -29 -9 -31 -60 -35 -30 -3 -56 -7 -58 -9 -2
-2 -8 -52 -11 -110 l-8 -107 51 10 c47 10 50 12 56 47 3 20 6 52 7 71 1 24 5
13 13 -35 7 -38 18 -81 25 -94 7 -13 9 -27 4 -31 -22 -21 -169 -43 -313 -47
-132 -5 -172 -2 -270 17 -63 12 -139 32 -167 45 -53 24 -59 33 -55 86 1 9 -8
61 -19 115 -22 107 -22 107 -45 269 -9 61 -19 119 -24 130 -5 11 -10 37 -12
58 -4 33 -2 38 16 35 14 -2 22 -12 24 -29 3 -23 9 -27 49 -33 26 -3 47 -5 48
-4 1 2 -3 44 -9 93 -9 77 -14 90 -29 87 -9 -2 -24 1 -33 6 -13 7 -6 14 37 36
50 25 123 35 132 19z m932 -153 c9 -17 15 -55 15 -92 l0 -63 -37 -12 c-21 -6
-39 -10 -41 -8 -2 2 1 19 7 37 6 18 13 56 16 83 6 53 14 85 20 85 3 0 11 -13
20 -30z m257 -204 c57 -27 143 -105 168 -152 15 -27 6 -44 -12 -26 -7 7 -16
12 -21 12 -5 0 2 -9 15 -20 40 -31 70 -124 64 -194 -7 -66 -47 -164 -81 -196
-23 -22 -23 -20 6 50 16 39 38 84 49 100 11 15 20 32 20 36 0 5 -11 -8 -25
-29 -29 -41 -39 -44 -91 -22 l-36 15 -55 -50 c-30 -28 -62 -50 -71 -50 -11 0
-13 -3 -6 -8 7 -4 17 -27 24 -50 10 -39 9 -47 -7 -65 -18 -22 -18 -22 3 -5 11
10 35 18 53 18 17 0 48 7 69 15 l37 15 -30 -26 c-42 -35 -91 -59 -153 -74 -56
-13 -106 -6 -67 10 15 7 9 9 -23 9 -55 1 -136 36 -151 64 -7 12 -9 14 -7 4 4
-14 -1 -17 -28 -17 -56 0 -146 111 -146 180 0 27 3 30 30 30 22 0 33 -7 44
-29 8 -15 31 -42 50 -59 20 -17 37 -42 37 -54 l2 -23 4 23 c3 16 21 30 61 49
31 14 64 25 72 24 12 -1 13 0 1 7 -7 5 -21 43 -31 83 l-17 74 46 50 46 50 -50
-47 -50 -47 -58 14 c-33 7 -62 16 -65 19 -7 8 -36 -41 -51 -87 -11 -33 -16
-37 -46 -37 -27 0 -35 5 -45 30 -16 39 -7 127 20 187 17 39 22 43 54 43 28 0
35 -4 39 -22 4 -20 4 -20 6 4 1 18 17 40 52 72 28 25 55 46 59 46 5 0 10 17
12 37 3 33 7 39 33 45 17 4 66 6 110 4 63 -2 92 -8 137 -30z m-1202 -58 c1
-86 6 -101 50 -131 25 -17 14 -22 -27 -11 -22 6 -23 9 -39 162 -4 42 -2 62 5
62 7 0 11 -29 11 -82z m760 3 c-15 -29 -30 -35 -30 -12 0 11 8 22 18 24 9 3
18 5 20 6 1 0 -2 -8 -8 -18z m-951 -56 c1 -16 -1 -17 -9 -5 -5 8 -9 29 -9 45
1 29 1 29 9 5 4 -14 8 -34 9 -45z m3240 -192 c6 -21 13 -63 17 -93 l6 -55 67
0 c53 0 72 -5 99 -23 42 -31 74 -93 76 -151 l1 -46 -315 -42 c-405 -53 -376
-53 -384 0 -4 23 -11 59 -17 80 -11 43 -82 127 -108 128 -37 1 26 18 72 18 30
1 47 5 48 14 0 6 0 46 -1 89 -1 45 3 79 10 83 16 10 38 -53 46 -129 4 -36 10
-66 13 -66 10 0 -7 148 -20 172 -13 25 1 38 43 38 25 0 29 -6 42 -52 8 -29 18
-74 22 -101 3 -26 9 -49 13 -51 9 -5 221 21 228 28 9 9 -17 168 -29 184 -8 9
-2 12 25 12 33 0 37 -3 46 -37z m-81 5 c3 -13 -10 -17 -75 -22 -43 -4 -89 -8
-103 -11 -19 -3 -28 2 -36 20 -11 23 -10 24 25 28 20 2 70 4 111 3 61 -1 75
-4 78 -18z m-591 -44 c24 -4 48 -13 54 -20 20 -24 -32 -27 -81 -5 -25 11 -53
21 -62 21 -10 0 -18 5 -18 11 0 7 12 9 33 5 17 -3 51 -9 74 -12z m-647 -143
c0 -5 -13 -14 -30 -21 -16 -7 -30 -16 -30 -21 0 -20 -66 -49 -113 -49 -56 0
-117 23 -117 44 0 12 5 13 30 4 17 -5 60 -8 95 -6 49 3 72 10 102 31 38 27 63
34 63 18z m711 -21 c46 -25 66 -141 33 -188 -22 -31 -36 -27 -18 6 26 51 14
124 -28 170 -23 24 -18 28 13 12z m-2506 -40 c-16 -4 -48 -8 -70 -8 -38 0 -38
1 -10 8 17 4 48 8 70 8 38 0 38 -1 10 -8z m145 -22 c38 -7 70 -15 70 -19 0 -3
-26 -20 -59 -37 l-58 -32 -164 34 c-90 19 -157 35 -149 36 8 1 74 8 145 15 72
6 133 13 137 13 4 1 39 -3 78 -10z m277 -34 c24 -3 45 -9 48 -15 4 -5 15 -9
25 -9 24 0 36 -20 19 -31 -8 -5 -40 -11 -71 -15 -32 -4 -58 -10 -58 -14 0 -8
-43 -19 -99 -25 -18 -2 -36 -7 -40 -13 -14 -21 -164 -31 -200 -12 -9 5 -24 11
-34 14 -10 3 -15 10 -12 16 4 6 -8 10 -29 10 -19 0 -37 4 -40 9 -3 4 -20 12
-38 16 -18 4 -27 9 -20 12 6 2 10 9 6 14 -8 13 28 11 131 -7 l91 -16 79 40
c84 42 99 43 242 26z"/>
<path d="M2046 2937 c-15 -11 -17 -17 -7 -35 19 -36 55 -54 103 -50 56 4 64
33 18 72 -35 29 -85 34 -114 13z m44 -22 c-15 -18 -15 -19 28 -33 30 -10 32
-9 32 11 1 20 2 20 11 4 16 -27 1 -40 -43 -34 -47 6 -76 26 -56 38 11 7 11 9
0 9 -7 0 -10 5 -7 10 3 6 15 10 27 10 17 0 18 -2 8 -15z"/>
<path d="M2380 2929 c0 -23 27 -41 103 -69 31 -12 64 -28 72 -37 20 -20 30
-11 16 15 -6 12 -51 41 -101 65 -78 38 -90 42 -90 26z"/>
<path d="M2235 2869 c-4 -11 -27 -45 -51 -75 -45 -55 -53 -81 -32 -102 9 -9 4
-12 -22 -12 -39 0 -102 -28 -108 -47 -5 -16 34 -17 76 -2 45 16 149 -20 190
-66 30 -32 68 -52 78 -42 18 17 -81 127 -113 127 -7 0 -13 4 -13 8 0 4 -16 14
-35 21 -58 21 -61 42 -15 96 36 42 70 95 70 110 0 14 -19 2 -25 -16z"/>
<path d="M2381 2837 c-36 -18 -36 -32 3 -62 65 -49 159 -40 142 13 -13 41
-103 71 -145 49z m33 -22 c-4 -8 -12 -15 -20 -15 -17 0 -18 17 -1 23 22 9 27
7 21 -8z m82 -51 c-15 -14 -23 -15 -56 -5 -48 14 -67 37 -24 28 16 -3 37 -9
47 -12 13 -6 17 -2 17 16 0 22 1 22 16 7 16 -15 16 -18 0 -34z"/>
<path d="M2076 2599 c-50 -39 -34 -58 84 -95 123 -40 156 -41 152 -4 -4 39
-39 67 -113 90 -38 11 -74 23 -82 26 -7 2 -26 -5 -41 -17z m114 -25 c44 -15
79 -29 76 -31 -6 -7 -155 38 -162 49 -7 12 -4 11 86 -18z"/>
<path d="M2093 2488 c9 -7 17 -29 19 -48 4 -48 31 -52 70 -10 16 18 28 33 26
34 -7 4 -115 36 -123 36 -5 0 -1 -6 8 -12z"/>
<path d="M346 2991 c-10 -15 51 -121 112 -195 166 -202 451 -446 492 -421 46
28 -77 201 -293 411 -174 171 -287 245 -311 205z"/>
<path d="M3610 2560 c0 -6 -30 -10 -71 -10 -46 0 -68 -4 -64 -10 4 -7 -2 -9
-18 -5 -14 4 -36 1 -49 -6 -12 -7 -32 -13 -43 -14 -11 -1 -29 -5 -40 -9 -15
-6 -17 -6 -5 3 18 12 9 24 -14 15 -23 -9 -20 -31 6 -45 29 -16 188 -5 253 17
60 20 102 54 83 66 -18 11 -38 10 -38 -2z"/>
<path d="M1173 1325 c-6 -18 23 -55 43 -55 38 0 91 -33 114 -71 33 -54 65 -67
96 -38 13 12 29 38 35 57 10 29 9 38 -8 61 -20 26 -33 31 -139 50 -86 16 -133
14 -141 -4z"/>
<path d="M340 910 c0 -12 28 -192 36 -232 4 -22 13 -29 40 -34 19 -3 37 -4 41
-1 9 10 -20 247 -31 256 -18 14 -86 23 -86 11z m110 -246 c0 -12 -6 -15 -22
-10 -13 3 -26 6 -29 6 -6 0 -29 111 -29 136 1 16 80 -115 80 -132z"/>
<path d="M1133 883 c-41 -3 -53 -8 -54 -21 -1 -24 -18 -170 -25 -214 -8 -47 8
-56 71 -38 49 14 46 5 65 153 12 93 13 128 3 125 -5 -1 -32 -3 -60 -5z m57
-43 c0 -8 -90 -60 -103 -60 -2 0 -2 11 0 24 4 20 14 26 51 34 26 5 48 10 50
11 1 0 2 -3 2 -9z m-14 -86 c-3 -9 -6 -28 -6 -44 0 -22 -6 -29 -26 -34 -43
-11 -64 1 -64 39 0 30 4 34 38 43 55 15 65 14 58 -4z"/>
<path d="M877 863 c-4 -3 -7 -63 -7 -133 l0 -127 38 -6 c20 -4 48 -9 62 -12
49 -11 54 3 56 149 l2 136 -72 0 c-40 0 -76 -3 -79 -7z m126 -113 c-12 -11
-85 -26 -105 -22 -33 7 -18 23 45 52 l62 28 3 -25 c2 -14 0 -29 -5 -33z m7
-36 c0 -11 -5 -14 -16 -10 -9 3 -18 6 -20 6 -3 0 -2 5 1 10 10 16 35 12 35 -6z"/>
<path d="M390 593 c0 -5 5 -36 10 -69 6 -32 13 -73 15 -90 4 -23 13 -35 36
-44 16 -7 32 -10 35 -7 5 5 -14 198 -21 205 -8 9 -75 13 -75 5z"/>
<path d="M509 572 c0 -4 0 -49 1 -101 1 -77 5 -100 21 -123 24 -32 36 -34 77
-11 27 15 28 20 25 67 -10 142 -13 156 -36 160 -61 12 -87 15 -88 8z m98 -26
c2 -2 3 -17 1 -33 l-3 -28 -40 38 -40 39 39 -6 c21 -3 41 -7 43 -10z"/>
<path d="M669 554 c-4 -34 4 -200 9 -206 4 -3 37 -9 75 -13 l67 -7 0 111 0
111 -44 0 c-24 0 -58 3 -75 6 -17 4 -31 3 -32 -2z m71 -34 c-30 -11 -56 -20
-57 -20 -2 0 -3 9 -3 20 0 18 6 20 58 19 l57 0 -55 -19z"/>
<path d="M924 553 c-49 -4 -52 -6 -58 -35 -3 -17 -6 -67 -6 -111 l0 -80 66 6
c37 4 68 8 69 9 2 2 6 51 10 111 6 100 6 107 -12 105 -10 -1 -41 -3 -69 -5z"/>
<path d="M1478 783 c7 -3 16 -2 19 1 4 3 -2 6 -13 5 -11 0 -14 -3 -6 -6z"/>
<path d="M1608 775 c-26 -7 -50 -10 -54 -6 -4 3 -4 0 0 -6 4 -7 12 -40 17 -74
7 -46 7 -65 -3 -78 -10 -13 -10 -14 1 -4 10 8 30 5 84 -13 39 -13 73 -28 76
-33 4 -5 19 17 35 50 17 32 37 60 45 62 13 4 12 5 -1 6 -10 0 -18 5 -18 10 0
4 -18 29 -41 55 -45 51 -59 54 -141 31z"/>
<path d="M1311 574 c0 -11 3 -14 6 -6 3 7 2 16 -1 19 -3 4 -6 -2 -5 -13z"/>
<path d="M980 3276 c-102 -29 -147 -66 -164 -138 -3 -15 -30 -47 -61 -74 -58
-51 -66 -71 -37 -97 28 -25 78 -21 188 18 116 40 180 44 254 15 91 -36 170
-20 170 34 0 26 -58 156 -86 193 -14 18 -38 40 -54 48 -35 18 -146 19 -210 1z
m208 -10 c37 -19 68 -65 103 -148 32 -78 35 -98 17 -116 -18 -18 -91 -14 -148
8 -74 29 -138 25 -254 -15 -103 -36 -163 -44 -184 -23 -21 21 -13 37 43 89 32
31 59 66 66 88 20 62 58 91 149 117 62 17 175 17 208 0z"/>
</g>
</svg>
